:SAMPLES-PER-SECOND 30
:FULLY-SPECIFIED
:DEGREES
76
root  13.5272 39.76 14.0614 -2.22102 -54.4334 -0.929581
RightUpLeg  -0.358043 -24.7026 -13.9615
RightLeg  17.7112 -11.6748 -4.28538
RightFoot  2.48901 -0.78131 6.57939
RightToes  2.91037e-010 0 -3.6325e-017
Spine  11.138 -1.03163 -3.957
Spine1  5.72377 -2.44852 3.65503
HEad  6.712 -13.9593 -0.196401
LeftShoulder1  -0.236717 4.22226 -26.6815
LeftArm  16.5599 2.17078 -43.3885
LeftForeArm  68.101 -78.4065 -54.1706
LeftHand  -0.0359706 -0.671238 0.760033
RightShoulder  -0.758535 -5.82706 26.0095
RightArm  6.15464 -10.0495 47.4793
RightForeArm  12.727 23.4096 4.33815
RightHand  -0.417489 3.63626 -5.6233
LeftUpLeg  -3.57483 13.5123 4.57743
LeftLeg  12.6479 3.16914 -1.74274
LeftFoot  -3.35572 -0.0429338 0.907037
LeftToes  -7.53974e-010 3.3384e-011 -1.25048e-011
77
root  13.522 39.7905 14.4431 -2.35092 -55.4935 -0.848312
RightUpLeg  -2.0795 -23.8733 -13.5868
RightLeg  19.6451 -9.51438 -3.95379
RightFoot  2.93704 -0.766088 6.2722
RightToes  2.91037e-010 0 -3.6325e-017
Spine  11.2969 -0.963421 -3.93021
Spine1  5.40602 -2.25692 3.06244
HEad  7.03329 -13.5861 0.179992
LeftShoulder1  -0.183046 4.08582 -25.2461
LeftArm  17.4473 -2.27759 -45.9617
LeftForeArm  98.5606 -80.3782 -88.3494
LeftHand  -0.0667897 -1.03332 1.31653
RightShoulder  -0.702894 -5.6764 25.6766
RightArm  7.25372 -10.2681 47.8376
RightForeArm  13.7279 25.1432 4.66234
RightHand  -0.389893 2.462 -5.96755
LeftUpLeg  -2.75856 13.013 4.32958
LeftLeg  12.3128 4.73294 -1.82489
LeftFoot  -3.6607 -0.0489067 1.05073
LeftToes  -7.53974e-010 3.3384e-011 -1.25048e-011
78
root  13.5003 39.7602 14.7716 -2.15053 -57.0786 -0.893906
RightUpLeg  -4.26501 -21.9458 -13.0689
RightLeg  21.3344 -5.65307 -2.63903
RightFoot  2.63593 -0.865879 7.19855
RightToes  2.91037e-010 0 -3.6325e-017
Spine  10.897 -0.899389 -4.12015
Spine1  5.64505 -2.17524 2.73618
HEad  7.63037 -12.6988 -0.134507
LeftShoulder1  -0.175414 4.0816 -24.0084
LeftArm  17.6146 -7.03535 -49.1478
LeftForeArm  125.602 -78.9942 -118.272
LeftHand  -0.0946307 -0.98955 1.83037
RightShoulder  -0.623512 -5.4583 25.183
RightArm  8.43635 -9.44486 48.1664
RightForeArm  14.485 26.1536 4.84527
RightHand  -0.435274 2.4379 -6.65994
LeftUpLeg  -2.49327 12.5292 4.10004
LeftLeg  12.6307 6.70485 -1.59504
LeftFoot  -4.47222 -0.0196455 0.785559
LeftToes  -7.53974e-010 3.3384e-011 -1.25048e-011
79
root  13.4629 39.7182 15.054 -1.97435 -58.7822 -0.924438
RightUpLeg  -6.34529 -20.3459 -12.5899
RightLeg  22.3704 -1.10599 -0.715792
RightFoot  2.46583 -0.875959 7.36845
RightToes  2.91037e-010 0 -3.6325e-017
Spine  10.5206 -0.867098 -4.60734
Spine1  5.84492 -2.24239 2.86745
HEad  8.56099 -12.5719 -0.702191
LeftShoulder1  -0.104785 3.87001 -22.1027
LeftArm  17.6013 -11.6725 -53.2929
LeftForeArm  135.452 -76.6125 -132.625
LeftHand  -0.0794664 -0.976198 1.54856
RightShoulder  -0.585951 -5.35449 24.9186
RightArm  8.70104 -8.47335 48.223
RightForeArm  14.7886 27.278 5.08306
RightHand  -0.456262 3.14778 -6.42072
LeftUpLeg  -2.17743 12.3618 4.0193
LeftLeg  12.8876 8.39084 -1.60096
LeftFoot  -5.29411 -0.0156028 0.885231
LeftToes  -7.53974e-010 3.3384e-011 -1.25048e-011
80
root  13.3842 39.6669 15.3064 -2.14355 -60.5538 -0.708893
RightUpLeg  -7.98155 -19.2133 -12.3411
RightLeg  22.6882 2.90703 1.11785
RightFoot  1.68157 -0.948456 8.39714
RightToes  2.91037e-010 0 -3.6325e-017
Spine  10.911 -1.07399 -4.86216
Spine1  5.03761 -2.40006 2.46947
HEad  9.7607 -11.2036 -0.7686
LeftShoulder1  -0.0394402 3.65292 -20.1438
LeftArm  18.1194 -15.8884 -56.9975
LeftForeArm  135.888 -74.2175 -140.09
LeftHand  -0.112546 -0.853743 2.2165
RightShoulder  -0.537075 -5.20365 24.7929
RightArm  8.2315 -8.3791 47.9904
RightForeArm  15.4234 29.1364 5.47701
RightHand  -0.389685 2.5826 -5.87814
LeftUpLeg  -1.72995 11.8931 3.72874
LeftLeg  13.2018 10.605 -1.21602
LeftFoot  -6.26854 0.0224754 0.349921
LeftToes  -7.53974e-010 3.3384e-011 -1.25048e-011
81
root  13.2821 39.6482 15.4972 -2.53427 -62.4092 -0.296234
RightUpLeg  -9.3267 -19.2901 -12.0797
RightLeg  22.0934 4.20382 1.67157
RightFoot  0.586684 -0.906865 8.69968
RightToes  2.91037e-010 0 -3.6325e-017
Spine  10.9013 -1.13813 -6.37312
Spine1  5.00392 -2.94192 4.07156
HEad  10.1498 -9.89866 -1.21347
LeftShoulder1  -0.0330286 3.63333 -19.0494
LeftArm  18.3124 -20.1628 -60.3112
LeftForeArm  134.131 -71.9964 -144.929
LeftHand  -0.114141 0.183039 2.53293
RightShoulder  -0.431814 -4.90031 24.0205
RightArm  7.57671 -8.05618 48.1453
RightForeArm  14.8206 30.7959 5.91015
RightHand  -0.47994 3.45091 -6.55002
LeftUpLeg  -0.99026 11.4337 3.4568
LeftLeg  12.9709 12.7983 -0.960247
LeftFoot  -6.63727 0.0386048 0.0334686
LeftToes  -7.53974e-010 3.3384e-011 -1.25048e-011
82
root  13.158 39.6825 15.6711 -2.3237 -64.1936 -0.462784
RightUpLeg  -10.2143 -20.3644 -11.4164
RightLeg  20.0256 2.5341 0.815653
RightFoot  0.200356 -0.863977 8.54593
RightToes  2.91037e-010 0 -3.6325e-017
Spine  10.737 -1.3906 -6.89206
Spine1  5.13588 -3.41595 5.03797
HEad  10.7586 -8.5639 -1.73721
LeftShoulder1  -0.0340475 3.6413 -17.8548
LeftArm  18.7935 -24.1846 -63.9049
LeftForeArm  129.47 -70.9007 -146.329
LeftHand  -0.068626 0.617947 1.60815
RightShoulder  -0.367332 -4.70964 23.4698
RightArm  6.61968 -8.14195 48.4343
RightForeArm  14.9213 32.6796 6.37724
RightHand  -0.499168 3.21235 -6.96884
LeftUpLeg  -0.128865 11.4023 3.53554
LeftLeg  12.2656 14.4751 -0.974888
LeftFoot  -6.81487 0.0492722 -0.208977
LeftToes  -7.53974e-010 3.3384e-011 -1.25048e-011
83
root  12.9891 39.7486 15.801 -2.19951 -65.9346 -0.762589
RightUpLeg  -10.3268 -22.4026 -10.6981
RightLeg  16.8974 0.897444 0.118318
RightFoot  -0.273049 -0.790837 8.13063
RightToes  2.91037e-010 0 -3.6325e-017
Spine  10.8722 -1.58314 -7.19699
Spine1  5.08902 -3.81915 5.99851
HEad  12.0077 -7.89334 -2.11377
LeftShoulder1  -0.008231 3.54062 -16.5777
LeftArm  19.2566 -27.7475 -67.2926
LeftForeArm  123.99 -70.1114 -146.996
LeftHand  -0.0274042 1.61752 0.574644
RightShoulder  -0.341992 -4.634 23.2152
RightArm  6.40989 -8.61393 48.3325
RightForeArm  15.6888 34.5106 6.80899
RightHand  -0.50495 3.16922 -7.07935
LeftUpLeg  1.23489 11.2089 3.70511
LeftLeg  10.9939 16.2326 -1.04462
LeftFoot  -6.7102 0.0668425 -0.65241
LeftToes  -7.53974e-010 3.3384e-011 -1.25048e-011
84
root  12.784 39.7812 15.8906 -2.55942 -68.0772 -0.291748
RightUpLeg  -10.5193 -23.6895 -10.2843
RightLeg  13.3038 -1.03418 0.244661
RightFoot  -0.703657 -0.70325 7.48559
RightToes  2.91037e-010 0 -3.6325e-017
Spine  10.7237 -1.7667 -7.24615
Spine1  5.08023 -3.98537 6.09385
HEad  12.2848 -6.77393 -2.14754
LeftShoulder1  -0.00553528 3.5256 -15.6248
LeftArm  19.3329 -30.1042 -69.9722
LeftForeArm  119.867 -69.369 -147.753
LeftHand  -0.00330949 3.29515 -0.993495
RightShoulder  -0.341872 -4.63441 23.189
RightArm  7.10711 -8.62976 48.2058
RightForeArm  15.3941 35.1682 7.00486
RightHand  -0.489981 3.36071 -6.74132
LeftUpLeg  2.21804 10.7684 3.32053
LeftLeg  10.0747 18.625 -0.636578
LeftFoot  -6.55141 0.0953272 -1.3417
LeftToes  -7.53974e-010 3.3384e-011 -1.25048e-011
85
root  12.4971 39.8086 15.9376 -3.04701 -70.2914 0.255493
RightUpLeg  -10.1656 -21.6914 -10.3448
RightLeg  9.59453 -6.66162 1.13612
RightFoot  -1.26189 -0.569486 6.35787
RightToes  2.91037e-010 0 -3.6325e-017
Spine  10.4834 -1.9042 -6.88364
Spine1  5.16116 -3.98723 5.76866
HEad  12.3647 -6.0485 -2.08328
LeftShoulder1  0.06129 3.2219 -14.7074
LeftArm  19.2386 -31.0535 -71.9559
LeftForeArm  115.571 -68.7325 -148.293
LeftHand  -0.0348759 5.52779 -2.65779
RightShoulder  -0.3538 -4.66434 23.4606
RightArm  7.49462 -8.83284 48.1235
RightForeArm  15.714 34.8032 6.88762
RightHand  -0.488208 3.62146 -6.53478
LeftUpLeg  3.44122 10.8876 3.33384
LeftLeg  9.04017 20.4779 -0.814514
LeftFoot  -6.41435 0.122619 -1.95167
LeftToes  -7.53974e-010 3.3384e-011 -1.25048e-011
